<svg width="960" height="640" viewBox="0 0 960 640" fill="none" xmlns="http://www.w3.org/2000/svg">
  <defs>
    <linearGradient id="bg2" x1="0" y1="0" x2="1" y2="1">
      <stop offset="0%" stop-color="#0f1b2d"/>
      <stop offset="100%" stop-color="#0f3b2f"/>
    </linearGradient>
    <linearGradient id="glow2" x1="0" y1="0" x2="1" y2="0">
      <stop offset="0%" stop-color="#34d399"/>
      <stop offset="100%" stop-color="#a7f3d0"/>
    </linearGradient>
  </defs>
  <rect width="960" height="640" rx="40" fill="url(#bg2)"/>
  <circle cx="180" cy="500" r="110" fill="#ffffff10"/>
  <circle cx="820" cy="140" r="90" fill="#ffffff08"/>
  <rect x="140" y="120" width="280" height="16" rx="8" fill="#ffffff33"/>
  <rect x="140" y="150" width="220" height="16" rx="8" fill="#ffffff22"/>
  <rect x="140" y="180" width="250" height="16" rx="8" fill="#ffffff22"/>
  <path d="M520 190h90v60h-90v-60zm120 0h90v90h-90v-90zm-120 90h90v90h-90v-90zm120 120h90v110h-90v-110zm-120 0h90v110h-90v-110zm-60-60h40v170h-40v-170z" fill="url(#glow2)"/>
  <text x="140" y="300" fill="#ffffff" font-family="Arial" font-size="34" font-weight="700">Firma &amp; Mitarbeiter</text>
  <text x="140" y="340" fill="#ffffffaa" font-family="Arial" font-size="20">Einfach anmelden, sofort bestellen.</text>
</svg>
