<svg width="960" height="640" viewBox="0 0 960 640" fill="none" xmlns="http://www.w3.org/2000/svg">
  <defs>
    <linearGradient id="bg" x1="0" y1="0" x2="1" y2="1">
      <stop offset="0%" stop-color="#1b2437"/>
      <stop offset="100%" stop-color="#4b2b1b"/>
    </linearGradient>
    <linearGradient id="glow" x1="0" y1="0" x2="1" y2="0">
      <stop offset="0%" stop-color="#f27c1f"/>
      <stop offset="100%" stop-color="#ffb870"/>
    </linearGradient>
  </defs>
  <rect width="960" height="640" rx="40" fill="url(#bg)"/>
  <circle cx="160" cy="140" r="80" fill="#ffffff10"/>
  <circle cx="820" cy="520" r="120" fill="#ffffff08"/>
  <rect x="120" y="440" width="320" height="14" rx="7" fill="#ffffff33"/>
  <rect x="120" y="470" width="220" height="14" rx="7" fill="#ffffff22"/>
  <rect x="120" y="500" width="260" height="14" rx="7" fill="#ffffff22"/>
  <path d="M545 210c-50 0-90 40-90 90 0 21 8 41 20 56-38 12-65 48-65 91 0 54 44 98 98 98 39 0 72-22 88-53 16 31 50 53 88 53 54 0 98-44 98-98 0-43-27-79-65-91 12-15 20-35 20-56 0-50-40-90-90-90-28 0-53 13-69 33-16-20-41-33-69-33z" fill="url(#glow)"/>
  <text x="120" y="200" fill="#ffffff" font-family="Arial" font-size="34" font-weight="700">Bäckerei &amp; Metzgerei</text>
  <text x="120" y="240" fill="#ffffffaa" font-family="Arial" font-size="20">Vernetzt. Planbar. Digital.</text>
</svg>
